<?xml version="1.0" standalone="no"?><!DOCTYPE svg PUBLIC "-//W3C//DTD SVG 1.1//EN" "http://www.w3.org/Graphics/SVG/1.1/DTD/svg11.dtd"><svg t="1520221971837" class="icon" style="" viewBox="0 0 1024 1024" version="1.1" xmlns="http://www.w3.org/2000/svg" p-id="1913" xmlns:xlink="http://www.w3.org/1999/xlink" width="128" height="128"><defs><style type="text/css"></style></defs><path d="M509.72826 92.853781c-231.475955 0-419.148265 187.67231-419.148265 419.148265 0 231.470839 187.67231 419.143149 419.148265 419.143149 231.498468 0 419.143149-187.67231 419.143149-419.143149C928.871409 280.526091 741.226728 92.853781 509.72826 92.853781L509.72826 92.853781zM745.847979 538.195615 535.921829 538.195615 535.921829 748.121765c0 14.278191-11.736299 25.846668-26.193569 25.846668-14.474666 0-26.198685-11.568477-26.198685-25.846668L483.529575 538.195615 273.603425 538.195615c-14.278191 0-25.841551-11.736299-25.841551-26.193569 0-14.474666 11.592013-26.198685 25.841551-26.198685l209.92615 0L483.529575 275.849582c0-14.250562 11.724019-25.813922 26.198685-25.813922 14.45727 0 26.193569 11.56336 26.193569 25.813922l0 209.953779 209.92615 0c14.305821 0 25.846668 11.724019 25.846668 26.198685C771.694647 526.459317 760.1538 538.195615 745.847979 538.195615L745.847979 538.195615zM745.847979 538.195615" p-id="1914" fill="#8a8a8a"></path></svg>